<svg width="23" height="35" viewBox="0 0 23 35" fill="none" xmlns="http://www.w3.org/2000/svg">
<path d="M0 0H13C18.5228 0 23 4.47715 23 10V25C23 30.5228 18.5228 35 13 35H0V0Z" fill="#007CE1"/>
<path d="M11.5959 20.0387L8.12553 16.2429C7.95816 16.0599 7.95816 15.7631 8.12553 15.58L8.5303 15.1373C8.69739 14.9545 8.96819 14.9542 9.13567 15.1365L11.899 18.1447L14.6623 15.1365C14.8298 14.9542 15.1006 14.9545 15.2677 15.1373L15.6724 15.58C15.8398 15.7631 15.8398 16.0599 15.6724 16.2429L12.202 20.0387C12.0347 20.2218 11.7633 20.2218 11.5959 20.0387Z" fill="white"/>
</svg>
